<?xml version="1.0" encoding="utf-8"?>
<!-- Generator: Adobe Illustrator 25.2.3, SVG Export Plug-In . SVG Version: 6.00 Build 0)  -->
<svg version="1.1" id="Layer_1" xmlns="http://www.w3.org/2000/svg" xmlns:xlink="http://www.w3.org/1999/xlink" x="0px" y="0px"
	 viewBox="0 0 24 24" style="enable-background:new 0 0 24 24;" xml:space="preserve">
<style type="text/css">
	.st0{fill:#F4F4F4;}
	.st1{fill:#034078;}
</style>
<ellipse class="st0" cx="10.9" cy="11.7" rx="8.2" ry="9.5"/>
<g>
	<g>
		<path class="st1" d="M12.1,1.4C6.2,1.4,1.5,6.1,1.5,12s4.8,10.6,10.6,10.6S22.7,17.9,22.7,12S18,1.4,12.1,1.4z M15.7,14
			c0.5,0.5,0.5,1.2,0,1.6c-0.2,0.2-0.5,0.3-0.8,0.3s-0.6-0.1-0.8-0.3l-2-2l-2,2c-0.2,0.2-0.5,0.3-0.8,0.3c-0.3,0-0.6-0.1-0.8-0.3
			C8,15.2,8,14.4,8.5,14l2-2l-2-2C8,9.6,8,8.9,8.5,8.4C9,8,9.7,8,10.1,8.4l2,2l2-2c0.5-0.5,1.2-0.5,1.6,0c0.5,0.5,0.5,1.2,0,1.6
			l-2,2L15.7,14z"/>
	</g>
</g>
</svg>
