<?xml version="1.0" encoding="utf-8"?>
<!-- Generator: Adobe Illustrator 25.2.3, SVG Export Plug-In . SVG Version: 6.00 Build 0)  -->
<svg version="1.1" xmlns="http://www.w3.org/2000/svg" xmlns:xlink="http://www.w3.org/1999/xlink" x="0px" y="0px"
	 viewBox="0 0 12.5 12.5" style="enable-background:new 0 0 12.5 12.5;" xml:space="preserve">
<style type="text/css">
	.st0{fill:#F7F7F7;}
	.st1{fill:#034078;}
</style>
<g id="Layer_2">
	<ellipse class="st0" cx="6.2" cy="6.3" rx="1.1" ry="1.2"/>
</g>
<g id="Layer_1">
	<g id="Layer_1_1_">
		<g>
			<g>
				<path class="st1" d="M6.2,4.5c-1,0-1.8,0.8-1.8,1.8S5.2,8,6.2,8S8,7.2,8,6.3S7.2,4.5,6.2,4.5z M6.8,6.6c0.1,0.1,0.1,0.2,0,0.3
					c-0.1,0-0.1,0.1-0.1,0.1c-0.1,0-0.1,0-0.1-0.1L6.2,6.5L5.9,6.8c0,0-0.1,0.1-0.1,0.1c-0.1,0-0.1,0-0.1-0.1
					c-0.1-0.1-0.1-0.2,0-0.3l0.3-0.3L5.6,5.9c-0.1-0.1-0.1-0.2,0-0.3c0.1-0.1,0.2-0.1,0.3,0l0.3,0.3l0.3-0.3c0.1-0.1,0.2-0.1,0.3,0
					c0.1,0.1,0.1,0.2,0,0.3L6.5,6.3L6.8,6.6z"/>
			</g>
		</g>
	</g>
</g>
</svg>
