<?xml version="1.0" encoding="utf-8"?>
<!-- Generator: Adobe Illustrator 25.2.3, SVG Export Plug-In . SVG Version: 6.00 Build 0)  -->
<svg version="1.1" id="Layer_1" xmlns="http://www.w3.org/2000/svg" xmlns:xlink="http://www.w3.org/1999/xlink" x="0px" y="0px"
	 viewBox="0 0 459 459" style="enable-background:new 0 0 459 459;" xml:space="preserve">
<style type="text/css">
	.st0{fill:#034078;}
</style>
<g>
	<g>
		<path class="st0" d="M229.5,0C102.8,0,0,102.8,0,229.5S102.8,459,229.5,459S459,356.2,459,229.5S356.2,0,229.5,0z M307.1,271.6
			c9.8,9.8,9.8,25.7,0,35.5c-4.9,4.9-11.3,7.3-17.7,7.3s-12.8-2.4-17.7-7.3L229.5,265l-42.1,42.1c-4.9,4.9-11.3,7.3-17.7,7.3
			c-6.4,0-12.8-2.4-17.7-7.3c-9.8-9.8-9.8-25.7,0-35.5l42.1-42.1l-42.1-42.1c-9.8-9.8-9.8-25.7,0-35.5s25.7-9.8,35.5,0l42.1,42.1
			l42.1-42.1c9.8-9.8,25.7-9.8,35.5,0c9.8,9.8,9.8,25.7,0,35.5L265,229.5L307.1,271.6z"/>
	</g>
</g>
</svg>
